# xmcd CD database file
#
# Track frame offsets:
#	150
#	48035
#	101865
#	142615
#	187045
#	221137
#
# Disc length: 3508 seconds
#
# Revision: 0
# Processed by: cddbd v1.4PL0 Copyright (c) Steve Scherf et al.
# Submitted via: CDex 1.50beta10
#
DISCID=510db206
DTITLE=George Cables - Why not
DYEAR=1975
DGENRE=Jazz
TTITLE0=Ebony moonbeams
TTITLE1=Rita I and II - Her spirit - Her soul
TTITLE2=Dark side - Light side (Yuh's blues)
TTITLE3=Quiet fire
TTITLE4=Why not ?
TTITLE5=Think on me
EXTD=YEAR: 1975
EXTT0=
EXTT1=
EXTT2=
EXTT3=
EXTT4=
EXTT5=
PLAYORDER=
